<svg xmlns="http://www.w3.org/2000/svg" viewBox="0 0 613 613" width="128" height="128">
  <rect x="0" y="0" width="613" height="613" rx="134" fill="#0f766e"/>
  <g transform="translate(306.5,306.5) scale(0.82) translate(-287.5,-306)">
    <path fill="#ffffff" d="
      M 122.2,99.2
      Q 96,59 144,59
      L 468,59
      Q 516,59 516,107
      Q 516,155 468,155
      L 284,155
      L 368,285.8
      Q 381,306 368,326.2
      L 284,457
      L 468,457
      Q 516,457 516,505
      Q 516,553 468,553
      L 144,553
      Q 96,553 122.2,512.8
      L 243.9,326.1
      Q 257,306 243.9,285.9
      Z
    "/>
  </g>
</svg>
